<svg width="34" height="19" viewBox="0 0 34 19" fill="none" xmlns="http://www.w3.org/2000/svg">
<path d="M4.90263 4.008L3.58263 0.719999H9.58263V12.84C9.58263 13.992 9.48663 14.92 9.29463 15.624C9.11863 16.328 8.82263 16.872 8.40663 17.256C8.00663 17.64 7.46263 17.896 6.77463 18.024C6.10263 18.168 5.27063 18.24 4.27863 18.24C3.97463 18.24 3.59063 18.216 3.12663 18.168C2.66263 18.136 2.19863 18.08 1.73463 18C1.28663 17.92 0.918625 17.84 0.630625 17.76L1.08663 13.944C1.34263 14.008 1.61463 14.072 1.90263 14.136C2.19063 14.184 2.47063 14.208 2.74263 14.208C3.36663 14.208 3.83063 14.128 4.13463 13.968C4.45463 13.792 4.66263 13.496 4.75863 13.08C4.85463 12.648 4.90263 12.04 4.90263 11.256V4.008ZM18.6991 6.192V0.719999H23.3791V6.192H18.6991ZM16.2991 18H11.6191V0.719999H16.2991V7.368H23.3791V11.184H16.2991V18ZM23.3791 12.408V18H18.6991V12.408H23.3791ZM28.9729 4.008L27.6529 0.719999H33.6529V12.84C33.6529 13.992 33.5569 14.92 33.3649 15.624C33.1889 16.328 32.8929 16.872 32.4769 17.256C32.0769 17.64 31.5329 17.896 30.8449 18.024C30.1729 18.168 29.3409 18.24 28.3489 18.24C28.0449 18.24 27.6609 18.216 27.1969 18.168C26.7329 18.136 26.2689 18.08 25.8049 18C25.3569 17.92 24.9889 17.84 24.7009 17.76L25.1569 13.944C25.4129 14.008 25.6849 14.072 25.9729 14.136C26.2609 14.184 26.5409 14.208 26.8129 14.208C27.4369 14.208 27.9009 14.128 28.2049 13.968C28.5249 13.792 28.7329 13.496 28.8289 13.08C28.9249 12.648 28.9729 12.04 28.9729 11.256V4.008Z" fill="#C8A6DF"/>
</svg>
