<svg width="204" height="19" viewBox="0 0 204 19" fill="none" xmlns="http://www.w3.org/2000/svg">
<path d="M5.11762 4.008L3.79762 0.719999H9.79762V12.84C9.79762 13.992 9.70162 14.92 9.50962 15.624C9.33362 16.328 9.03762 16.872 8.62162 17.256C8.22162 17.64 7.67762 17.896 6.98962 18.024C6.31762 18.168 5.48562 18.24 4.49362 18.24C4.18962 18.24 3.80562 18.216 3.34162 18.168C2.87762 18.136 2.41362 18.08 1.94962 18C1.50162 17.92 1.13362 17.84 0.845621 17.76L1.30162 13.944C1.55762 14.008 1.82962 14.072 2.11762 14.136C2.40562 14.184 2.68562 14.208 2.95762 14.208C3.58162 14.208 4.04562 14.128 4.34962 13.968C4.66962 13.792 4.87762 13.496 4.97362 13.08C5.06962 12.648 5.11762 12.04 5.11762 11.256V4.008ZM12.0557 4.56L10.5197 0.719999H22.0157L21.2957 4.56H12.0557ZM11.8397 5.76H16.5197V7.2H21.0077L20.2877 11.04H16.5197V14.16H22.1837L21.4637 18H11.8397V5.76ZM29.9407 18.216V14.376C30.2927 14.168 30.5327 13.688 30.6607 12.936C30.7887 12.184 30.8527 10.984 30.8527 9.336C30.8527 7.672 30.7887 6.48 30.6607 5.76C30.5327 5.024 30.2927 4.56 29.9407 4.368V0.551999C31.3647 0.599999 32.5087 0.911999 33.3727 1.488C34.2527 2.064 34.8927 2.984 35.2927 4.248C35.6927 5.512 35.8927 7.224 35.8927 9.384C35.8927 11.544 35.6927 13.256 35.2927 14.52C34.8927 15.784 34.2527 16.704 33.3727 17.28C32.5087 17.84 31.3647 18.152 29.9407 18.216ZM28.7407 14.376V18.24C27.3327 18.176 26.1887 17.856 25.3087 17.28C24.4287 16.704 23.7887 15.784 23.3887 14.52C22.9887 13.256 22.7887 11.544 22.7887 9.384C22.7887 7.224 22.9887 5.512 23.3887 4.248C23.7887 2.984 24.4207 2.064 25.2847 1.488C26.1647 0.911999 27.3167 0.599999 28.7407 0.551999V4.368C28.3887 4.56 28.1487 5.024 28.0207 5.76C27.8927 6.496 27.8287 7.688 27.8287 9.336C27.8287 10.984 27.8927 12.192 28.0207 12.96C28.1487 13.712 28.3887 14.184 28.7407 14.376ZM50.4157 18H44.7997L36.1837 0.719999H41.7517L50.4157 18ZM50.4157 15.312L45.8557 6.456V0.719999H50.4157V15.312ZM37.1677 5.208L41.7277 14.424V18H37.1677V5.208ZM57.0084 8.832H51.9684C52.0484 6.864 52.4244 5.272 53.0964 4.056C53.7684 2.84 54.6804 1.952 55.8324 1.392C57.0004 0.815999 58.3364 0.527999 59.8404 0.527999C60.4004 0.527999 60.9844 0.575999 61.5924 0.671999C62.2004 0.767999 62.8244 0.88 63.4644 1.008L63.0324 4.944C62.5044 4.848 62.0484 4.776 61.6644 4.728C61.2964 4.664 60.9204 4.632 60.5364 4.632C59.7524 4.632 59.1044 4.752 58.5924 4.992C58.0804 5.232 57.6964 5.656 57.4404 6.264C57.2004 6.872 57.0564 7.728 57.0084 8.832ZM59.9364 18.24V12.744L58.6164 9.456H64.2564V17.184C63.7444 17.52 63.1044 17.776 62.3364 17.952C61.5844 18.112 60.7844 18.208 59.9364 18.24ZM58.7364 14.136V18.216C57.3924 18.136 56.2164 17.808 55.2084 17.232C54.2164 16.656 53.4404 15.784 52.8804 14.616C52.3364 13.432 52.0324 11.904 51.9684 10.032H57.0084C57.0404 11.248 57.1844 12.176 57.4404 12.816C57.6964 13.456 58.1284 13.896 58.7364 14.136ZM78.7734 6.192V0.719999H83.4534V6.192H78.7734ZM76.3734 18H71.6934V0.719999H76.3734V7.368H83.4534V11.184H76.3734V18ZM83.4534 12.408V18H78.7734V12.408H83.4534ZM93.7033 12.936V18H89.0233V12.72L84.6553 0.719999H89.6953L93.7033 12.936ZM94.3273 11.064L92.2153 4.632L93.2953 0.719999H98.0953L94.3273 11.064ZM105.687 18.216V14.328C106.071 14.056 106.263 13.32 106.263 12.12V0.719999H110.943V11.904C110.943 14 110.511 15.552 109.647 16.56C108.783 17.568 107.463 18.12 105.687 18.216ZM104.487 14.376V18.216C102.695 18.136 101.359 17.592 100.479 16.584C99.6148 15.576 99.1828 14.016 99.1828 11.904V0.719999H103.863V12.12C103.863 13.352 104.071 14.104 104.487 14.376ZM125.908 18H120.292L111.676 0.719999H117.244L125.908 18ZM125.908 15.312L121.348 6.456V0.719999H125.908V15.312ZM112.66 5.208L117.22 14.424V18H112.66V5.208ZM141.813 4.008L140.493 0.719999H146.493V12.84C146.493 13.992 146.397 14.92 146.205 15.624C146.029 16.328 145.733 16.872 145.317 17.256C144.917 17.64 144.373 17.896 143.685 18.024C143.013 18.168 142.181 18.24 141.189 18.24C140.885 18.24 140.501 18.216 140.037 18.168C139.573 18.136 139.109 18.08 138.645 18C138.197 17.92 137.829 17.84 137.541 17.76L137.997 13.944C138.253 14.008 138.525 14.072 138.813 14.136C139.101 14.184 139.381 14.208 139.653 14.208C140.277 14.208 140.741 14.128 141.045 13.968C141.365 13.792 141.573 13.496 141.669 13.08C141.765 12.648 141.813 12.04 141.813 11.256V4.008ZM155.081 18.216V14.376C155.433 14.168 155.673 13.688 155.801 12.936C155.929 12.184 155.993 10.984 155.993 9.336C155.993 7.672 155.929 6.48 155.801 5.76C155.673 5.024 155.433 4.56 155.081 4.368V0.551999C156.505 0.599999 157.649 0.911999 158.513 1.488C159.393 2.064 160.033 2.984 160.433 4.248C160.833 5.512 161.033 7.224 161.033 9.384C161.033 11.544 160.833 13.256 160.433 14.52C160.033 15.784 159.393 16.704 158.513 17.28C157.649 17.84 156.505 18.152 155.081 18.216ZM153.881 14.376V18.24C152.473 18.176 151.329 17.856 150.449 17.28C149.569 16.704 148.929 15.784 148.529 14.52C148.129 13.256 147.929 11.544 147.929 9.384C147.929 7.224 148.129 5.512 148.529 4.248C148.929 2.984 149.561 2.064 150.425 1.488C151.305 0.911999 152.457 0.599999 153.881 0.551999V4.368C153.529 4.56 153.289 5.024 153.161 5.76C153.033 6.496 152.969 7.688 152.969 9.336C152.969 10.984 153.033 12.192 153.161 12.96C153.289 13.712 153.529 14.184 153.881 14.376ZM168.976 18.216V14.328C169.36 14.056 169.552 13.32 169.552 12.12V0.719999H174.232V11.904C174.232 14 173.8 15.552 172.936 16.56C172.072 17.568 170.752 18.12 168.976 18.216ZM167.776 14.376V18.216C165.984 18.136 164.648 17.592 163.768 16.584C162.904 15.576 162.472 14.016 162.472 11.904V0.719999H167.152V12.12C167.152 13.352 167.36 14.104 167.776 14.376ZM189.197 18H183.581L174.965 0.719999H180.533L189.197 18ZM189.197 15.312L184.637 6.456V0.719999H189.197V15.312ZM175.949 5.208L180.509 14.424V18H175.949V5.208ZM195.789 8.832H190.749C190.829 6.864 191.205 5.272 191.877 4.056C192.549 2.84 193.461 1.952 194.613 1.392C195.781 0.815999 197.117 0.527999 198.621 0.527999C199.181 0.527999 199.765 0.575999 200.373 0.671999C200.981 0.767999 201.605 0.88 202.245 1.008L201.813 4.944C201.285 4.848 200.829 4.776 200.445 4.728C200.077 4.664 199.701 4.632 199.317 4.632C198.533 4.632 197.885 4.752 197.373 4.992C196.861 5.232 196.477 5.656 196.221 6.264C195.981 6.872 195.837 7.728 195.789 8.832ZM198.717 18.24V12.744L197.397 9.456H203.037V17.184C202.525 17.52 201.885 17.776 201.117 17.952C200.365 18.112 199.565 18.208 198.717 18.24ZM197.517 14.136V18.216C196.173 18.136 194.997 17.808 193.989 17.232C192.997 16.656 192.221 15.784 191.661 14.616C191.117 13.432 190.813 11.904 190.749 10.032H195.789C195.821 11.248 195.965 12.176 196.221 12.816C196.477 13.456 196.909 13.896 197.517 14.136Z" fill="#C8A6DF"/>
</svg>
